<svg xmlns="http://www.w3.org/2000/svg" width="28.017" height="24.625" viewBox="0 0 28.017 24.625">
  <g id="Grupo_7" data-name="Grupo 7" transform="translate(0 0)">
    <path id="Trazado_29166" data-name="Trazado 29166" d="M308.159,3997.711h14.887a.821.821,0,0,0,.789-.6l3.283-11.49a.82.82,0,0,0-.789-1.047H306.267l-.587-2.641a.822.822,0,0,0-.8-.643h-4.925a.821.821,0,0,0,0,1.643h4.266l2.963,13.336a2.462,2.462,0,0,0,.978,4.722h14.885a.821.821,0,0,0,0-1.642H308.161a.821.821,0,0,1,0-1.642Zm17.082-11.491-2.814,9.85H308.82l-2.188-9.85Zm0,0" transform="translate(-299.132 -3981.294)" fill="#fff"/>
    <path id="Trazado_29167" data-name="Trazado 29167" d="M306.559,4001.58a2.462,2.462,0,1,0,2.463-2.462,2.465,2.465,0,0,0-2.463,2.462Zm2.463-.821a.821.821,0,1,1-.821.821.821.821,0,0,1,.821-.821Zm0,0" transform="translate(-298.35 -3979.417)" fill="#fff"/>
    <path id="Trazado_29168" data-name="Trazado 29168" d="M317.055,4001.58a2.462,2.462,0,1,0,2.461-2.462,2.464,2.464,0,0,0-2.461,2.462Zm2.461-.821a.821.821,0,1,1-.82.821.822.822,0,0,1,.82-.821Zm0,0" transform="translate(-297.245 -3979.417)" fill="#fff"/>
  </g>
</svg>
