<svg xmlns="http://www.w3.org/2000/svg" width="32.893" height="32.893" viewBox="0 0 32.893 32.893">
  <g id="Grupo_9" data-name="Grupo 9" transform="translate(0 0)">
    <path id="Trazado_29169" data-name="Trazado 29169" d="M188.818,3858.336a8.445,8.445,0,1,0,8.445,8.445A8.445,8.445,0,0,0,188.818,3858.336Zm0,13.927a5.482,5.482,0,1,1,5.482-5.482A5.482,5.482,0,0,1,188.818,3872.263Z" transform="translate(-172.372 -3850.335)" fill="#fff"/>
    <path id="Trazado_29170" data-name="Trazado 29170" d="M196.145,3856.248a1.974,1.974,0,1,0,1.973,1.974A1.974,1.974,0,0,0,196.145,3856.248Z" transform="translate(-170.919 -3850.555)" fill="#fff"/>
    <path id="Trazado_29171" data-name="Trazado 29171" d="M205.164,3856.771a8.422,8.422,0,0,0-4.81-4.811,12.1,12.1,0,0,0-3.992-.764c-1.754-.081-2.314-.1-6.781-.1s-5.027.019-6.781.1a12.1,12.1,0,0,0-3.992.764,8.422,8.422,0,0,0-4.81,4.811,12.061,12.061,0,0,0-.764,3.992c-.081,1.754-.1,2.314-.1,6.781s.019,5.027.1,6.781a12.053,12.053,0,0,0,.765,3.992,8.413,8.413,0,0,0,4.809,4.81,12.094,12.094,0,0,0,3.992.764c1.754.081,2.314.1,6.781.1s5.027-.019,6.781-.1a12.088,12.088,0,0,0,3.992-.764,8.41,8.41,0,0,0,4.81-4.81,12.089,12.089,0,0,0,.764-3.992c.081-1.754.1-2.314.1-6.781s-.019-5.027-.1-6.781A12.06,12.06,0,0,0,205.164,3856.771Zm-2.2,17.419a9.116,9.116,0,0,1-.566,3.054,5.45,5.45,0,0,1-3.121,3.121,9.078,9.078,0,0,1-3.055.566c-1.733.079-2.254.1-6.646.1s-4.911-.017-6.645-.1a9.063,9.063,0,0,1-3.054-.566,5.44,5.44,0,0,1-3.121-3.121,9.087,9.087,0,0,1-.566-3.054c-.08-1.734-.1-2.255-.1-6.646s.017-4.912.1-6.646a9.105,9.105,0,0,1,.566-3.054,5.448,5.448,0,0,1,3.121-3.121,9.117,9.117,0,0,1,3.054-.566c1.734-.08,2.254-.1,6.646-.1s4.911.018,6.646.1a9.124,9.124,0,0,1,3.054.566,5.448,5.448,0,0,1,3.121,3.121,9.105,9.105,0,0,1,.566,3.054c.08,1.734.1,2.254.1,6.646S203.047,3872.455,202.967,3874.189Z" transform="translate(-173.134 -3851.097)" fill="#fff"/>
  </g>
</svg>
