<svg xmlns="http://www.w3.org/2000/svg" width="29.537" height="17.947" viewBox="0 0 29.537 17.947">
  <path id="Trazado_29164" data-name="Trazado 29164" d="M204.43,3985.384a1.515,1.515,0,0,0-1.513-1.511h0l-26.491.037a1.513,1.513,0,0,0-1.511,1.515l.021,14.885a1.511,1.511,0,0,0,1.513,1.511h0l26.491-.037a1.515,1.515,0,0,0,1.511-1.515Zm-3.174,0-11.572,8.044-11.594-8.012Zm-6.679,9.563,6.864,5.322-23.536.033,6.906-5.355a.757.757,0,0,0-.927-1.2l-7.436,5.767-.019-13.412,12.827,8.865a.758.758,0,0,0,.862,0l12.8-8.9.02,13.446-7.434-5.765a.757.757,0,0,0-.927,1.2Zm0,0" transform="translate(-174.914 -3983.873)" fill="#fff"/>
</svg>
