<svg xmlns="http://www.w3.org/2000/svg" width="33.955" height="26.779" viewBox="0 0 33.955 26.779">
  <g id="Grupo_2" data-name="Grupo 2" transform="translate(0 0)">
    <path id="Trazado_29160" data-name="Trazado 29160" d="M332.585,3858.1a14.259,14.259,0,0,1-4,1.067,6.819,6.819,0,0,0,3.064-3.743,14.144,14.144,0,0,1-4.426,1.641,7.054,7.054,0,0,0-5.084-2.133,6.864,6.864,0,0,0-6.964,6.757,6.5,6.5,0,0,0,.181,1.542A19.978,19.978,0,0,1,301,3856.165a6.568,6.568,0,0,0-.943,3.4,6.7,6.7,0,0,0,3.1,5.626,7.1,7.1,0,0,1-3.158-.846v.085a6.82,6.82,0,0,0,5.588,6.63,7.2,7.2,0,0,1-1.835.237,7,7,0,0,1-1.309-.121,6.947,6.947,0,0,0,6.508,4.7,14.243,14.243,0,0,1-8.653,2.895,14.649,14.649,0,0,1-1.663-.1,20.163,20.163,0,0,0,10.681,3.04,19.383,19.383,0,0,0,19.82-19.238l-.019-.875a13.918,13.918,0,0,0,3.473-3.5Zm0,0" transform="translate(-298.63 -3854.929)" fill="#fff"/>
  </g>
</svg>
